<svg xmlns="http://www.w3.org/2000/svg" width="541" height="541" style="background-color: white;">
  <path d="M 33.813 0 C 15.138 0 0 15.138 0 33.813 L 0 507.188 C 0 525.862 15.138 541 33.813 541 L 507.188 541 C 525.862 541 541 525.862 541 507.188 L 541 33.813 C 541 15.138 525.862 0 507.188 0 Z M 185.969 152.156 L 304.786 152.156 C 349.906 152.121 387.498 186.725 391.19 231.694 C 394.883 276.662 363.441 316.936 318.92 324.262 L 318.92 388.844 L 185.969 388.844 Z M 219.781 185.969 L 219.781 355.031 L 285.107 355.031 L 285.107 291.599 L 304.786 291.599 C 333.955 291.599 357.601 267.953 357.601 238.784 C 357.601 209.615 333.955 185.969 304.786 185.969 Z" fill="rgb(9, 160, 128)"></path>
</svg>
